<?xml version="1.0" standalone="no"?>
<!DOCTYPE svg PUBLIC "-//W3C//DTD SVG 20010904//EN"
 "http://www.w3.org/TR/2001/REC-SVG-20010904/DTD/svg10.dtd">
<svg version="1.0" xmlns="http://www.w3.org/2000/svg"
 width="570.000000pt" height="749.000000pt" viewBox="0 0 570.000000 749.000000"
 preserveAspectRatio="xMidYMid meet">

<g transform="translate(0.000000,749.000000) scale(0.100000,-0.100000)"
fill="#000000" stroke="none">
<path d="M2735 7479 c-243 -23 -468 -111 -665 -260 -108 -81 -136 -93 -240
-103 -266 -26 -607 -99 -872 -186 -261 -87 -341 -132 -408 -232 -61 -92 -76
-192 -100 -676 -12 -252 -1 -315 65 -358 34 -22 132 -14 200 17 74 33 182 37
265 9 173 -57 438 -209 615 -351 127 -102 279 -260 309 -321 l25 -53 -9 -390
c-12 -523 -37 -811 -96 -1120 -31 -159 -91 -400 -110 -437 -32 -62 -29 -61
-634 -122 -190 -20 -424 -42 -521 -50 -96 -9 -199 -23 -228 -32 -61 -20 -134
-81 -161 -134 -23 -44 -22 -42 -105 -432 l-65 -306 2 -268 3 -267 110 -69
c182 -114 174 -111 875 -388 850 -335 1175 -485 1470 -678 130 -84 208 -142
295 -217 l60 -52 250 159 c373 237 541 315 1370 633 485 186 1039 406 1106
441 62 31 110 79 137 137 20 43 22 62 22 247 l0 200 -100 401 c-55 221 -109
418 -120 439 -21 41 -66 79 -115 98 -16 7 -140 28 -275 47 -344 49 -948 160
-1018 186 -33 13 -79 55 -97 90 -47 88 -154 658 -190 1004 -22 218 -35 589
-26 745 9 149 25 201 79 256 49 49 646 472 704 499 126 58 288 69 467 30 118
-25 186 -3 218 72 24 59 45 305 45 528 0 180 -2 221 -20 286 -47 176 -141 294
-292 367 -161 77 -715 197 -1050 228 -98 9 -121 19 -217 97 -267 215 -615 319
-958 286z m335 -114 c224 -37 432 -136 597 -286 39 -35 79 -63 101 -68 21 -5
111 -17 202 -26 91 -9 228 -28 305 -42 208 -38 558 -128 633 -163 174 -81 245
-201 258 -434 8 -135 -13 -571 -30 -606 -15 -32 -57 -36 -166 -16 -156 30
-315 17 -447 -37 -34 -14 -205 -120 -380 -237 l-318 -211 83 80 c248 241 560
412 847 465 44 8 110 20 147 26 90 16 148 54 179 116 22 44 24 61 23 169 -2
157 -31 419 -49 456 -20 37 -62 68 -162 118 -250 125 -577 219 -873 251 -253
27 -277 36 -390 145 -127 122 -227 178 -393 220 -173 44 -465 51 -647 15 -191
-36 -353 -122 -488 -255 -42 -43 -85 -76 -100 -79 -15 -3 -85 -10 -157 -16
-339 -30 -658 -108 -932 -227 -106 -47 -182 -102 -209 -155 -28 -53 -62 -500
-44 -568 20 -75 81 -123 207 -164 29 -10 55 -21 58 -25 2 -5 -34 -11 -81 -14
-46 -3 -123 -16 -170 -28 -81 -21 -86 -21 -104 -4 -17 15 -20 31 -20 104 0
108 27 542 40 639 23 169 89 222 416 331 251 83 534 144 804 171 156 16 196
30 292 106 166 132 340 211 550 249 101 18 304 18 418 0z m129 -159 c-2 -2
-74 -55 -160 -118 l-155 -115 -153 113 c-85 62 -156 116 -159 119 -3 3 138 5
313 5 175 0 316 -2 314 -4z m-643 -101 c66 -19 123 -70 161 -142 36 -67 48
-109 73 -248 17 -90 17 -102 3 -117 -17 -18 -16 -22 16 -110 30 -83 27 -142
-10 -216 -35 -70 -83 -115 -148 -137 -89 -30 -156 -13 -185 49 -16 34 -21 101
-10 131 9 24 52 42 117 50 54 7 57 9 57 35 0 65 -76 99 -176 81 -75 -14 -124
-42 -177 -101 -68 -76 -90 -142 -85 -260 4 -80 9 -106 37 -169 18 -40 31 -82
28 -92 -8 -28 -2 -24 35 27 18 26 46 52 61 59 l28 12 -54 54 c-29 30 -68 67
-85 82 -27 24 -32 35 -32 73 0 25 7 58 15 75 19 36 17 37 155 -74 175 -140
280 -266 355 -422 41 -86 85 -231 85 -283 l0 -25 -88 6 c-104 8 -198 35 -303
88 -98 49 -110 61 -102 102 7 41 9 43 -152 -153 -70 -85 -131 -159 -136 -164
-8 -9 -121 139 -192 254 -61 99 -135 256 -150 319 -6 28 -15 51 -19 51 -4 0
-46 -25 -94 -55 -49 -30 -96 -55 -106 -55 -33 0 -77 29 -171 113 -170 150
-325 321 -470 519 -67 90 -70 85 70 120 115 28 330 30 478 4 106 -19 255 -52
261 -59 5 -5 -17 -109 -25 -119 -3 -4 -64 7 -136 23 -164 37 -327 54 -428 45
l-77 -8 17 -30 c22 -37 404 -407 440 -426 14 -8 36 -11 50 -7 37 9 166 112
152 121 -18 11 -4 224 20 317 26 98 87 216 147 285 41 47 172 147 181 138 2
-1 13 -89 24 -195 l21 -193 -27 -28 -26 -28 36 -22 c35 -21 36 -24 30 -64 -6
-41 -6 -40 18 16 79 186 186 279 367 316 74 15 80 15 161 -5 46 -12 93 -25
104 -29 16 -6 14 -1 -8 19 -25 24 -50 72 -102 194 -9 23 -31 54 -47 70 -42 40
-117 40 -176 0 l-42 -28 25 -37 c38 -56 35 -112 -10 -156 -62 -62 -155 -58
-214 9 -27 31 -31 43 -31 93 0 72 25 127 87 193 99 106 252 152 379 114z m838
-31 c159 -78 256 -248 201 -354 -23 -44 -53 -60 -113 -60 -64 0 -112 19 -140
55 -29 36 -28 74 3 119 14 20 25 41 25 46 0 5 -20 21 -45 36 -38 22 -55 26
-96 22 -65 -7 -90 -31 -130 -126 -41 -100 -74 -148 -126 -183 -24 -17 -43 -35
-43 -42 0 -6 -9 -2 -21 9 l-20 21 26 118 c51 225 91 301 187 350 48 24 61 26
143 23 75 -4 100 -9 149 -34z m-1634 -231 c0 -5 -26 -44 -58 -88 l-57 -80 -50
-2 c-67 -4 -367 39 -372 53 -2 6 98 32 254 66 280 61 283 62 283 51z m2030
-34 c73 -45 144 -130 194 -234 54 -110 76 -204 83 -358 7 -136 15 -152 93
-192 87 -44 97 -38 387 249 89 88 160 163 157 167 -2 4 -37 13 -77 19 -92 16
-207 8 -362 -26 -66 -14 -136 -28 -156 -31 l-35 -5 -13 57 c-16 69 -18 67 101
95 214 50 442 64 601 35 144 -25 161 -60 74 -153 -29 -31 -162 -174 -294 -318
-146 -158 -253 -266 -272 -274 -48 -20 -94 -6 -185 54 -46 31 -86 56 -89 56
-3 0 -3 -15 0 -34 5 -30 -9 -61 -115 -248 -187 -331 -185 -328 -209 -334 l-22
-6 24 -32 c14 -18 25 -35 25 -38 0 -3 -35 -8 -77 -10 -91 -6 -147 -30 -244
-108 -64 -51 -124 -76 -211 -87 -49 -6 -65 4 -111 71 -22 33 -57 34 -92 3
l-27 -23 39 4 c28 3 43 -1 53 -13 21 -26 -4 -62 -70 -101 -78 -46 -129 -59
-173 -45 -53 18 -118 80 -120 115 -2 26 3 30 43 44 l45 15 -34 14 c-47 20 -61
14 -91 -37 l-27 -45 -55 1 c-78 2 -168 46 -250 122 -79 75 -102 84 -184 76
-54 -6 -64 -4 -64 9 0 25 45 71 99 100 160 87 431 68 627 -43 l54 -31 -15 42
c-9 23 -13 44 -10 47 6 7 105 16 105 10 0 -3 -7 -24 -15 -47 -8 -22 -12 -41
-10 -41 2 0 27 16 57 35 169 112 404 112 682 -1 11 -4 -38 59 -109 139 -121
139 -129 146 -139 125 -15 -31 -200 -123 -286 -142 -37 -9 -99 -19 -139 -22
l-71 -7 0 35 c0 61 38 190 84 283 53 107 121 199 217 294 69 69 250 221 262
221 13 0 47 -80 47 -109 0 -24 -15 -43 -85 -107 l-85 -77 43 -50 c23 -27 53
-63 67 -80 l26 -30 -4 41 c-3 28 5 66 24 119 23 64 28 95 29 173 0 82 -4 103
-26 151 -50 106 -150 176 -269 186 -72 7 -115 -9 -135 -48 -21 -39 -19 -58 8
-63 110 -23 128 -30 148 -55 17 -21 20 -35 15 -69 -14 -102 -68 -142 -165
-123 -167 34 -254 206 -190 376 28 75 59 109 132 145 115 56 236 49 371 -23
117 -62 201 -159 252 -292 4 -12 16 84 28 235 12 140 25 261 29 268 13 19 32
15 87 -19z m401 -19 c281 -58 284 -59 272 -71 -13 -13 -358 -62 -387 -55 -16
4 -43 33 -80 87 -54 77 -61 89 -52 89 2 0 113 -23 247 -50z m-3376 -450 l46
-59 -53 -30 c-29 -17 -54 -28 -56 -26 -5 4 9 175 14 175 1 0 23 -27 49 -60z
m4126 -45 c3 -39 4 -71 3 -73 -1 -2 -25 8 -53 22 l-51 26 33 50 c44 69 61 63
68 -25z m-3436 13 c24 -28 27 -39 22 -82 -7 -77 -62 -115 -120 -84 -30 15
-117 89 -117 99 0 4 27 28 61 53 77 58 114 61 154 14z m2778 21 c12 -6 46 -30
76 -53 l54 -41 -58 -52 c-64 -57 -91 -68 -129 -53 -77 29 -81 160 -6 197 31
16 36 16 63 2z m-3315 -185 c16 -19 22 -37 22 -73 0 -66 -27 -101 -79 -101
-36 0 -57 12 -139 78 l-24 18 54 48 c29 27 62 52 73 57 30 12 67 1 93 -27z
m3888 -3 c21 -16 52 -40 67 -53 l28 -23 -63 -52 c-45 -39 -71 -53 -93 -53 -66
0 -105 64 -85 139 20 74 80 91 146 42z m-3657 -235 c24 -25 30 -36 19 -36 -15
0 -160 31 -166 35 -1 1 7 23 18 49 l20 48 38 -30 c20 -17 53 -46 71 -66z
m3426 47 c9 -20 14 -41 12 -47 -4 -11 -177 -58 -177 -47 0 8 133 130 142 131
4 0 15 -17 23 -37z m-3465 -180 c104 -35 280 -122 381 -189 122 -82 203 -151
320 -272 128 -132 202 -230 230 -302 37 -95 40 -60 -106 -1455 -21 -200 -43
-359 -55 -403 -60 -215 -148 -313 -305 -341 -33 -6 -127 -15 -210 -21 -245
-17 -629 -49 -795 -66 -299 -31 -337 -67 -395 -370 -35 -185 -94 -450 -106
-477 -16 -37 1 159 22 258 11 50 43 184 71 298 42 176 55 214 79 242 16 18 39
35 52 38 12 3 299 36 637 72 338 36 639 70 669 75 135 24 169 83 241 412 89
406 128 817 132 1418 l3 305 -31 66 c-38 79 -130 180 -289 317 -192 165 -443
317 -640 387 -44 15 -84 32 -90 37 -18 16 109 -4 185 -29z m520 -84 c33 -61
59 -116 58 -121 -2 -5 -48 25 -103 67 -141 109 -134 97 -78 133 26 18 51 32
55 32 4 0 34 -50 68 -111z m2500 41 c0 -10 -221 -183 -226 -177 -4 3 23 56 93
184 l33 62 50 -31 c28 -17 50 -34 50 -38z m-1902 -572 c37 -35 80 -72 95 -83
l26 -20 -87 -120 -87 -120 -6 103 c-6 88 -11 112 -38 167 -18 35 -44 74 -59
85 -26 21 -26 22 -8 36 11 8 37 14 58 14 34 0 48 -8 106 -62z m1340 46 c22 -6
21 -7 -14 -46 -61 -68 -86 -136 -93 -255 l-6 -105 -94 117 c-51 63 -92 117
-90 118 2 2 18 11 34 22 17 10 56 43 87 73 31 30 74 60 95 68 44 15 50 16 81
8z m-941 -201 c31 -14 109 -91 148 -146 l21 -28 51 64 c39 49 67 73 114 96
107 53 194 39 275 -43 74 -76 89 -127 89 -291 -1 -153 -7 -173 -141 -485 l-85
-198 141 -141 c158 -157 143 -154 190 -48 44 100 33 205 -25 227 -29 11 -78
13 -88 4 -3 -4 10 -29 29 -58 18 -28 34 -54 34 -58 0 -5 -24 -8 -54 -8 -48 0
-57 3 -80 31 -32 38 -36 108 -7 155 36 59 148 86 205 49 37 -24 79 -117 84
-185 5 -64 -16 -175 -55 -300 -37 -118 -166 -373 -261 -515 -124 -187 -325
-411 -390 -436 -16 -6 -33 -5 -50 3 -15 7 -99 95 -187 195 -207 236 -195 225
-182 175 9 -35 7 -51 -22 -135 -59 -173 -52 -323 20 -467 28 -56 56 -94 100
-134 33 -31 65 -56 71 -56 20 0 2 98 -30 163 -17 35 -63 98 -101 140 -74 81
-89 116 -73 172 7 23 14 29 31 28 63 -8 210 -141 269 -245 67 -118 102 -279
88 -410 -10 -90 -11 -91 -79 -73 -178 46 -318 169 -408 360 -38 81 -79 221
-79 270 l0 27 -67 -7 c-193 -20 -291 -54 -372 -130 -46 -43 -91 -126 -91 -168
0 -7 20 -18 45 -25 56 -15 123 -75 172 -153 l35 -58 32 17 c41 22 177 22 266
-1 92 -24 256 -108 318 -162 121 -107 191 -249 192 -387 0 -102 -13 -160 -58
-248 -46 -91 -59 -100 -100 -72 -46 33 -48 26 -7 -19 74 -82 99 -181 72 -286
-47 -184 -149 -276 -302 -277 -187 0 -313 153 -246 299 23 52 79 101 126 109
52 10 123 -26 150 -76 18 -35 19 -38 3 -72 -22 -45 -60 -70 -93 -62 -29 7 -49
48 -40 83 8 32 -19 41 -46 17 -18 -16 -20 -28 -17 -73 6 -72 37 -101 109 -101
125 0 240 116 239 241 0 33 -33 119 -45 119 -4 0 -25 -11 -48 -24 -98 -58
-268 -43 -453 40 -6 3 -10 -5 -10 -18 1 -19 -9 -25 -79 -45 -236 -68 -340 -61
-448 28 -35 29 -72 82 -273 390 l-84 129 -51 -39 c-29 -22 -72 -44 -97 -51
l-44 -11 52 -37 c29 -20 66 -56 83 -80 40 -55 41 -97 3 -147 -24 -31 -32 -36
-55 -30 -14 4 -32 11 -38 17 -18 15 -17 108 2 128 14 16 7 19 -97 49 -62 17
-154 40 -205 50 -105 23 -169 52 -233 109 -87 76 -131 199 -111 308 24 127 88
218 193 274 54 29 75 34 148 38 106 4 173 -17 282 -90 l77 -52 -22 -30 -22
-31 30 19 c287 187 476 296 515 296 5 0 10 -10 13 -22 4 -26 5 -25 38 65 46
126 176 280 292 347 111 65 240 86 327 55 24 -8 44 -14 45 -13 1 2 28 76 61
166 32 89 63 162 68 162 5 0 18 -8 29 -17 12 -11 2 15 -26 67 -48 90 -175 404
-233 576 -39 118 -41 148 -14 236 36 116 114 155 216 109 78 -36 106 -126 60
-196 -30 -46 -59 -58 -105 -44 -23 7 -41 14 -41 17 0 13 44 74 61 82 11 6 16
16 12 26 -10 25 -92 10 -122 -23 -34 -39 -27 -133 16 -225 18 -38 36 -68 41
-68 5 0 38 34 73 76 35 42 95 105 133 140 l69 62 -80 189 c-103 241 -131 323
-144 424 -21 153 0 262 64 335 81 92 196 122 294 77z m981 -150 c-10 -168 -12
-173 -27 -75 -7 46 -9 98 -6 115 8 42 26 87 34 87 3 0 3 -57 -1 -127z m-1413
-475 c31 -61 54 -113 52 -114 -4 -5 -105 -24 -123 -24 -11 0 -14 20 -14 88 0
99 9 162 21 162 5 0 34 -50 64 -112z m1290 -19 c4 -66 5 -122 3 -124 -2 -2
-33 -1 -68 3 -57 6 -65 10 -63 27 4 36 93 215 107 215 11 0 15 -28 21 -121z
m275 -1039 c66 -294 84 -342 142 -378 88 -54 563 -163 898 -207 373 -48 424
-57 478 -80 49 -22 60 -34 46 -47 -3 -4 -34 7 -68 23 -80 38 -168 55 -336 69
-74 6 -196 17 -270 25 -74 8 -241 24 -370 35 -309 27 -370 46 -448 134 -67 77
-107 200 -131 411 -16 139 -23 334 -12 310 6 -11 38 -144 71 -295z m-1638 64
c52 -109 78 -173 75 -188 -5 -19 -14 -46 -50 -149 -15 -42 -45 -75 -86 -96
-38 -20 -151 -45 -160 -36 -3 3 19 117 48 253 75 349 83 382 88 382 2 0 41
-75 85 -166z m1512 -159 c38 -174 67 -317 65 -320 -8 -7 -181 34 -197 47 -17
14 -71 128 -96 203 l-17 47 82 169 c45 93 85 169 88 169 3 0 37 -142 75 -315z
m-300 -223 c32 -87 61 -164 65 -170 5 -9 19 -8 54 4 39 13 58 14 119 5 213
-33 361 -135 454 -315 50 -98 74 -121 184 -176 52 -26 166 -91 254 -144 l159
-96 29 39 c59 81 176 131 304 131 l72 0 -28 28 c-16 17 -32 45 -36 68 -15 82
-66 149 -136 178 -80 34 -200 10 -246 -48 -11 -15 -26 -52 -32 -82 -10 -47 -9
-59 4 -80 18 -26 36 -30 67 -14 15 9 17 15 9 30 -5 10 -10 37 -10 59 0 47 21
64 73 59 25 -2 36 -11 51 -39 18 -32 18 -41 7 -78 -14 -50 -85 -126 -124 -136
-40 -10 -81 11 -132 67 -60 67 -73 115 -50 187 34 110 143 182 282 189 75 4
88 1 147 -26 84 -39 139 -90 175 -163 42 -84 49 -134 22 -169 l-20 -28 57 -28
c78 -38 154 -118 183 -191 34 -89 32 -208 -5 -290 -63 -138 -196 -220 -396
-242 -82 -9 -120 -20 -204 -56 l-38 -16 21 -22 c19 -21 20 -27 8 -72 -11 -47
-14 -50 -42 -47 -16 2 -41 11 -54 21 -66 47 -41 130 64 209 75 57 74 62 -24
83 -35 7 -58 19 -74 39 l-24 28 -122 -189 c-154 -237 -204 -305 -259 -343 -61
-43 -96 -54 -177 -55 -88 -1 -164 18 -257 65 l-72 36 -82 -26 c-120 -40 -203
-50 -289 -37 -40 6 -84 15 -99 21 -26 10 -26 10 -9 37 l17 28 -28 -25 c-97
-87 -73 -255 48 -338 80 -54 156 -41 209 35 31 45 33 62 11 104 -21 41 -38 32
-42 -22 -2 -24 -8 -49 -14 -56 -16 -20 -72 -15 -103 9 -24 19 -26 26 -21 61 9
56 33 92 73 111 108 51 223 -38 223 -173 0 -61 -15 -93 -67 -143 -52 -51 -116
-78 -184 -78 -153 0 -250 78 -301 244 -35 117 -13 234 62 319 37 42 33 47 -11
15 l-31 -23 -24 30 c-43 52 -83 150 -96 228 -36 231 109 463 365 587 135 65
290 88 390 58 l40 -12 119 123 c66 68 121 121 124 119 2 -3 13 -29 23 -59 23
-63 27 -47 7 26 -22 83 -43 122 -91 173 -72 78 -185 118 -380 136 l-61 5 -12
-89 c-22 -164 -83 -287 -186 -375 -66 -56 -334 -227 -346 -220 -15 9 -30 102
-30 184 0 98 28 211 77 304 42 82 179 226 251 265 l42 23 10 -26 c27 -71 4
-131 -84 -215 -54 -51 -93 -117 -111 -188 -24 -94 -20 -101 40 -60 58 40 123
131 154 213 49 131 47 313 -4 420 -33 69 -36 86 -26 123 10 33 66 112 80 112
5 0 34 -71 65 -158z m-1731 -284 c-11 -13 -44 -59 -73 -103 -64 -99 -85 -122
-132 -146 -74 -38 -84 -32 -170 99 -61 92 -74 118 -61 121 30 6 387 48 422 50
l34 1 -20 -22z m2631 -13 c110 -14 202 -28 204 -30 3 -3 -129 -207 -148 -228
-11 -12 -111 36 -155 74 -32 28 -145 187 -145 204 0 9 39 6 244 -20z m-3272
-45 c179 -55 256 -251 146 -376 -62 -71 -108 -78 -176 -26 -117 89 -125 222
-13 222 44 0 41 3 62 -92 7 -32 15 -58 19 -58 4 0 17 11 30 25 17 19 23 36 23
70 0 150 -238 208 -356 87 -34 -35 -67 -104 -67 -142 0 -9 -10 -29 -21 -44
-18 -23 -28 -27 -63 -24 -40 3 -41 4 -38 38 10 105 75 221 156 277 92 63 188
77 298 43z m-402 -1 c0 -5 -37 -85 -81 -177 -76 -154 -87 -172 -152 -234 -39
-38 -75 -68 -80 -68 -10 0 -2 104 15 190 23 118 90 220 172 262 69 35 126 48
126 27z m4628 -65 c91 -45 147 -142 179 -306 8 -43 13 -94 11 -114 l-3 -37
-52 47 c-42 38 -66 74 -128 195 -42 82 -94 170 -116 195 l-41 46 49 0 c33 0
66 -9 101 -26z m-3134 -8 c47 -20 79 -69 79 -122 0 -112 -126 -173 -204 -98
-72 69 -55 181 35 220 40 17 49 17 90 0z m1587 -11 c93 -49 89 -194 -7 -240
-60 -28 -132 4 -160 71 -18 44 -18 68 3 111 30 65 102 90 164 58z m1794 -177
c3 -7 27 -147 55 -310 47 -279 50 -308 50 -473 0 -128 -4 -185 -14 -209 -28
-66 -10 -58 -846 -375 -157 -60 -379 -143 -495 -186 -574 -212 -1023 -440
-1326 -671 l-57 -44 -168 112 c-252 165 -390 246 -610 356 -313 157 -489 231
-1382 581 -164 64 -365 150 -493 210 -41 19 -97 76 -86 87 2 2 44 -20 93 -50
57 -34 248 -119 529 -236 597 -247 1482 -616 1634 -681 68 -29 201 -98 294
-155 l169 -102 107 70 c260 170 659 338 1991 835 272 101 516 198 542 214 112
72 113 131 18 760 -22 145 -40 267 -40 272 0 12 30 8 35 -5z m-5151 -763 c94
-94 229 -157 416 -196 52 -11 96 -22 98 -23 6 -7 14 -106 8 -106 -3 0 -109 46
-234 101 -401 179 -402 180 -402 284 0 34 3 65 6 68 4 4 20 -14 35 -38 16 -25
49 -65 73 -90z m5145 52 c1 -59 -23 -101 -77 -130 -62 -33 -563 -259 -566
-255 -1 2 0 27 2 56 3 44 7 53 25 56 283 52 451 138 555 282 51 69 60 68 61
-9z m-4161 -437 c84 -100 104 -130 85 -130 -18 0 -283 96 -283 103 0 7 99 137
104 137 2 0 44 -49 94 -110z m3212 33 c59 -78 67 -68 -98 -124 -127 -43 -147
-46 -139 -25 8 20 170 216 179 216 4 0 30 -30 58 -67z m-1656 5 c29 -46 30
-61 10 -224 -9 -73 11 -153 56 -223 34 -53 60 -77 175 -166 23 -18 36 -5 -151
-142 l-112 -82 -147 108 -146 109 59 45 c79 62 119 109 154 184 34 72 41 161
19 251 -7 29 -11 67 -7 84 6 33 43 98 55 98 3 0 19 -19 35 -42z m-851 -316 c1
-56 -2 -102 -6 -102 -13 0 -287 114 -287 120 0 6 272 89 283 87 5 -2 9 -49 10
-105z m1850 44 c48 -15 87 -30 87 -34 -1 -7 -268 -122 -283 -122 -4 0 -7 49
-7 109 l0 109 58 -18 c31 -9 96 -29 145 -44z"/>
<path d="M1831 6557 c-18 -50 -36 -98 -39 -105 -4 -11 8 -13 64 -7 38 4 71 9
73 11 7 7 -44 194 -53 194 -6 0 -26 -42 -45 -93z"/>
<path d="M1780 6343 c0 -15 -3 -53 -7 -83 l-6 -55 46 43 c53 48 83 53 121 20
l26 -23 -61 -80 c-34 -44 -72 -97 -86 -117 l-25 -37 19 -28 c11 -15 66 -116
123 -223 56 -107 105 -198 109 -202 4 -5 49 49 100 119 60 82 82 117 61 99
l-33 -27 -24 37 c-69 101 -113 252 -113 388 l0 75 -43 19 c-23 10 -66 27 -95
36 -29 10 -66 29 -82 43 l-30 25 0 -29z"/>
<path d="M2431 5868 c-5 -13 -21 -49 -35 -82 -14 -32 -26 -60 -26 -62 0 -2 56
-32 125 -67 69 -35 125 -63 125 -62 0 16 -39 124 -60 166 -24 46 -97 129 -115
129 -3 0 -9 -10 -14 -22z"/>
<path d="M3800 6554 l5 -86 57 -23 56 -23 -15 52 c-8 28 -22 65 -30 81 -15 30
-62 85 -72 85 -3 0 -4 -39 -1 -86z"/>
<path d="M3905 6350 c-4 -6 -36 -25 -72 -43 l-65 -33 68 -19 c38 -10 75 -20
82 -23 9 -3 12 12 12 56 0 58 -11 85 -25 62z"/>
<path d="M3725 6265 c-5 -2 -22 -6 -37 -9 -28 -6 -28 -7 -28 -94 -1 -102 -7
-134 -62 -305 l-41 -127 -35 20 -34 21 37 -53 c21 -29 58 -81 83 -115 l46 -63
121 225 c67 124 124 228 127 231 4 3 21 -2 39 -12 27 -13 15 4 -57 82 -109
119 -124 140 -124 176 0 26 -9 32 -35 23z"/>
<path d="M3217 5860 c-19 -17 -49 -52 -66 -78 -38 -59 -85 -182 -70 -182 6 0
49 18 96 40 59 27 99 40 129 40 l43 0 -45 102 c-24 56 -46 103 -48 105 -2 3
-20 -10 -39 -27z"/>
<path d="M2395 5350 c-33 -5 -85 -13 -115 -18 l-55 -9 46 -21 c83 -39 176 -56
309 -56 91 0 134 3 159 15 l35 15 -35 21 c-82 50 -219 71 -344 53z m255 -42
c0 -5 0 -15 0 -24 0 -14 -8 -15 -52 -10 -29 3 -81 9 -115 12 -50 5 -63 10 -63
24 0 9 2 19 4 21 8 8 227 -15 226 -23z"/>
<path d="M3093 5335 c-65 -18 -122 -47 -146 -73 -17 -19 -16 -19 85 -26 58 -4
145 -2 199 4 110 12 225 41 223 55 -7 41 -258 69 -361 40z m182 -30 c0 -17
-11 -21 -85 -31 -127 -18 -140 -18 -140 6 0 11 1 20 3 21 24 7 170 27 192 26
23 -2 30 -7 30 -22z"/>
<path d="M2526 4875 c-50 -18 -52 -21 -76 -87 -33 -94 -35 -153 -10 -243 18
-66 163 -442 175 -453 1 -2 54 42 116 97 111 99 113 101 133 83 12 -10 65 -57
118 -106 94 -85 98 -87 107 -64 5 12 38 95 74 183 75 186 117 313 117 356 0
17 -7 62 -16 102 -14 59 -24 79 -55 111 -37 36 -42 38 -88 34 -112 -11 -209
-145 -181 -249 13 -47 97 -139 127 -139 10 0 35 14 56 31 29 24 37 38 37 64 0
41 -10 49 -83 68 -33 9 -60 17 -62 19 -2 2 8 26 23 53 28 52 49 63 98 51 30
-8 86 -115 88 -168 0 -27 -16 -71 -62 -160 -34 -68 -72 -140 -85 -161 l-23
-38 -99 130 c-55 72 -102 131 -106 131 -3 0 -45 -51 -94 -112 -49 -62 -91
-115 -93 -118 -6 -7 -76 74 -121 140 -51 75 -76 144 -75 210 2 116 81 188 162
146 40 -20 55 -49 47 -86 -6 -27 -10 -29 -63 -32 -57 -3 -57 -3 -66 -40 -12
-48 3 -81 46 -108 18 -11 36 -20 41 -20 19 0 97 85 108 118 35 105 -14 227
-104 261 -37 14 -63 13 -111 -4z"/>
<path d="M2759 4057 c-34 -23 -64 -47 -65 -52 -2 -6 32 -61 75 -122 l78 -113
77 112 77 111 -23 25 c-41 44 -100 82 -129 82 -16 0 -53 -18 -90 -43z"/>
<path d="M2505 3794 c-135 -171 -158 -227 -124 -304 19 -42 117 -200 125 -200
2 0 -1 11 -8 25 -12 26 -8 32 178 268 l71 91 -79 108 c-44 59 -81 108 -83 108
-2 0 -38 -43 -80 -96z"/>
<path d="M3033 3781 c-46 -61 -83 -113 -83 -115 0 -2 16 -23 35 -47 20 -23 79
-105 132 -181 l95 -140 35 49 c100 138 107 219 29 331 -26 37 -66 90 -89 117
-23 28 -49 61 -57 73 -15 22 -16 21 -97 -87z"/>
<path d="M2710 3370 c-72 -82 -135 -150 -139 -150 -4 0 -13 6 -21 13 -17 14
-20 17 165 -201 76 -90 141 -160 145 -155 4 4 63 76 130 158 68 83 132 160
142 172 20 22 20 22 1 17 -16 -5 -46 25 -148 145 -71 83 -132 151 -135 151 -4
0 -67 -67 -140 -150z"/>
<path d="M1685 2299 c-4 -25 -8 -70 -9 -101 -1 -32 -9 -67 -19 -81 l-17 -26
45 16 c25 8 65 13 89 11 49 -3 49 -5 -2 65 -19 27 -45 74 -58 104 l-22 56 -7
-44z"/>
<path d="M1323 2122 c-106 -81 -192 -151 -192 -155 -1 -5 20 -33 45 -63 44
-52 48 -53 60 -35 8 11 91 61 185 112 163 89 169 94 150 109 -26 19 -41 69
-41 132 0 27 -3 48 -7 47 -5 0 -94 -66 -200 -147z"/>
<path d="M650 2150 c-16 -10 -12 -12 44 -25 16 -3 45 -17 65 -31 53 -36 105
-48 148 -33 19 6 31 15 26 19 -4 4 -47 24 -96 44 -87 36 -156 46 -187 26z"/>
<path d="M513 2076 c-38 -43 -63 -101 -63 -145 0 -65 70 -154 155 -199 75 -39
154 -36 325 12 l134 38 25 -29 c14 -15 22 -21 19 -13 -71 186 -80 202 -107
196 -62 -14 -188 -18 -227 -7 -61 16 -121 65 -162 131 -20 33 -42 59 -49 60
-6 0 -29 -20 -50 -44z"/>
<path d="M1817 2015 c-11 -24 -31 -42 -61 -57 l-44 -21 51 -43 c29 -24 58 -44
65 -44 9 0 12 27 12 100 0 55 -1 100 -3 100 -2 0 -11 -16 -20 -35z"/>
<path d="M1958 1899 l-35 -150 41 40 c69 67 118 86 216 86 76 0 91 -3 138 -30
111 -61 162 -202 113 -311 -17 -37 -99 -114 -122 -114 -5 0 -9 -4 -9 -8 0 -7
221 -44 227 -38 9 9 63 245 63 276 0 60 -36 161 -75 210 -99 123 -251 190
-436 190 l-85 0 -36 -151z"/>
<path d="M1600 1891 c-36 -15 -116 -51 -177 -80 -74 -35 -120 -50 -133 -46
-18 6 -17 1 11 -62 16 -37 32 -69 34 -71 1 -2 20 22 40 53 75 112 134 133 255
91 41 -14 76 -23 78 -21 2 2 -16 30 -42 62 l-46 58 27 22 c34 28 33 28 -47 -6z"/>
<path d="M2106 1765 c-95 -33 -149 -137 -127 -243 20 -101 86 -183 180 -225
34 -15 73 -21 146 -24 114 -3 104 4 -55 37 -142 29 -139 28 -133 49 4 14 21
22 71 32 l67 13 -56 7 c-97 11 -149 68 -149 163 0 62 32 96 88 96 39 0 40 -1
46 -45 5 -33 3 -50 -10 -70 -15 -23 -15 -28 -3 -36 70 -46 169 16 169 105 0
34 -7 50 -36 84 -61 71 -115 87 -198 57z"/>
<path d="M1740 1727 c0 -2 12 -31 27 -63 44 -97 27 -181 -45 -218 -40 -20
-118 -29 -141 -16 -19 10 -50 85 -39 95 8 9 102 9 121 1 15 -7 17 -2 17 39 0
60 -12 81 -56 95 -69 23 -152 -18 -174 -86 -18 -54 -7 -145 24 -199 46 -77
115 -115 211 -115 44 0 235 27 243 35 1 1 -12 33 -30 70 -40 86 -50 196 -24
271 22 64 20 72 -8 45 l-25 -23 -50 37 c-28 20 -51 35 -51 32z"/>
<path d="M4007 2273 c-4 -7 -39 -34 -77 -61 -55 -39 -67 -52 -57 -60 20 -17
207 -80 200 -68 -4 6 -15 22 -25 36 -10 14 -21 54 -26 95 -4 39 -11 65 -15 58z"/>
<path d="M4175 2228 c-3 -7 -16 -49 -29 -93 l-23 -79 136 -74 c126 -67 169
-100 197 -147 9 -16 16 -10 55 53 24 39 49 71 55 72 10 0 103 -37 112 -45 2
-2 -11 -30 -30 -63 -18 -33 -30 -63 -27 -66 13 -14 261 -78 321 -83 116 -10
204 30 266 121 57 85 42 188 -39 261 -22 19 -43 35 -48 35 -5 0 -14 -15 -20
-33 -32 -95 -127 -166 -235 -174 -70 -6 -181 26 -276 79 -134 76 -280 164
-336 204 -67 48 -72 50 -79 32z"/>
<path d="M4862 2108 c-147 -35 -162 -53 -43 -53 63 0 72 3 131 43 35 23 59 42
54 41 -5 0 -69 -14 -142 -31z"/>
<path d="M3575 2040 c-107 -8 -160 -22 -235 -60 -195 -99 -287 -313 -215 -500
10 -25 20 -64 22 -87 6 -48 -10 -47 153 -9 l95 22 -42 27 c-67 43 -97 89 -101
161 -5 82 11 139 55 187 44 48 95 76 165 89 69 13 152 -8 236 -60 57 -36 62
-38 57 -17 -3 12 -18 74 -33 137 -31 131 -17 121 -157 110z"/>
<path d="M3847 1947 c8 -34 17 -74 20 -89 3 -16 7 -28 8 -28 1 0 21 18 43 40
52 53 87 54 142 4 l40 -36 -108 -84 c-84 -66 -114 -84 -140 -84 -30 0 -32 -2
-25 -27 4 -16 7 -68 7 -118 0 -77 -4 -99 -28 -152 -16 -35 -35 -68 -42 -74 -8
-6 -14 -15 -14 -19 0 -14 192 -43 252 -37 190 17 310 198 232 350 -30 56 -121
85 -177 56 -31 -17 -37 -28 -37 -77 l0 -43 55 6 c64 8 85 -3 85 -46 0 -31 -45
-72 -92 -83 -73 -17 -168 76 -168 162 1 65 74 163 152 203 45 23 137 25 176 5
36 -19 75 -62 105 -115 l25 -44 36 71 c20 39 36 73 36 75 0 2 -12 2 -27 0 -20
-3 -90 25 -232 92 -113 53 -235 109 -272 125 l-67 28 15 -61z"/>
<path d="M3451 1752 c-48 -24 -92 -82 -98 -129 -4 -34 -1 -45 26 -75 35 -40
78 -61 113 -56 26 3 28 23 14 111 l-8 47 36 15 c19 8 37 15 40 15 2 0 18 -22
35 -48 24 -37 31 -60 31 -97 0 -43 -4 -52 -39 -85 -22 -21 -56 -42 -78 -47
l-38 -9 48 -13 c34 -10 47 -19 47 -32 0 -13 -13 -20 -57 -29 -79 -16 -217 -51
-222 -56 -9 -9 175 7 209 18 74 24 149 88 186 160 22 43 30 145 14 192 -35
108 -164 167 -259 118z"/>
</g>
</svg>
